<svg xmlns="http://www.w3.org/2000/svg" viewBox="0 0 130 27.03" data-fc-idx="0"><g data-name="Layer 2"><g data-name="Layer 1"><path d="M126 4H60.55l4-4H130ZM57 26.76h-5.37l-2-4.57H45v4.5h-4.8V8.79h10.69a6.69 6.69 0 0 1 3.61 12.36ZM50.89 12.9a2.4 2.4 0 0 0-.66-.09H45v5.37h5.21a2.6 2.6 0 0 0 .68-.09 2.72 2.72 0 0 0 1.69-1.31 2.71 2.71 0 0 0-1.69-3.92Zm-18.75 11h-7.59l-1.16 2.84H18.3l7.63-17.91h4.83l7.64 17.89h-5.09Zm-3.79-9.59L26 20.37h4.68ZM9.72 22.37a4.93 4.93 0 0 0 4.19-2.28l4.18 2.35A9.81 9.81 0 0 1 9.72 27 9.5 9.5 0 0 1 0 17.74a9.5 9.5 0 0 1 9.72-9.26A9.8 9.8 0 0 1 18.09 13l-4.18 2.35a4.93 4.93 0 0 0-4.19-2.28 4.74 4.74 0 0 0-4.86 4.62 4.74 4.74 0 0 0 4.81 4.67ZM65.35 8.79h5.56a6.7 6.7 0 0 1 0 13.4h-5.56v4.5h-4.8V8.79Zm0 9.38h4.87a2.68 2.68 0 1 0 0-5.36h-4.87Zm19.5-9.38h5.89a6.69 6.69 0 0 1 3.61 12.36l2.48 5.61h-5.35l-2-4.57h-4.63v4.5h-4.8V8.79Zm0 9.39h5.21a2.6 2.6 0 0 0 .68-.09 2.72 2.72 0 0 0 1.69-1.31 2.68 2.68 0 0 0-1.67-3.88 2.4 2.4 0 0 0-.66-.09h-5.25Zm24-9.7a9.49 9.49 0 0 1 9.72 9.25 9.73 9.73 0 0 1-19.44 0 9.49 9.49 0 0 1 9.71-9.26Zm0 13.89a4.74 4.74 0 0 0 4.86-4.62 4.87 4.87 0 0 0-9.72 0 4.74 4.74 0 0 0 4.85 4.63Zm12.48-13h-.63v2h-.54v-2h-.63V9h1.8Zm1.82 1.23.76-1.6h.7v2.4h-.52V9.65l-.7 1.55h-.5l-.71-1.55v1.75h-.52V9h.7Z" data-name="Layer 1-2" style="fill: rgb(255, 255, 255) !important;"/></g></g></svg>